# Blender 4.1.1
# www.blender.org
mtllib CornerRU.mtl
o CornerRU
v -0.281250 0.150000 0.500000
v -0.281250 0.150000 0.281250
v 0.281250 0.150000 0.500000
v 0.281250 0.150000 -0.281250
v -0.500000 0.150000 0.281250
v -0.500000 0.150000 -0.281250
v 0.500000 0.100000 0.500000
v 0.500000 -0.000000 0.500000
v -0.500000 0.100000 0.500000
v -0.500000 0.000000 0.500000
v -0.500000 0.000000 -0.500000
v 0.500000 -0.000000 -0.500000
v 0.500000 0.100000 -0.500000
v -0.500000 0.100000 -0.500000
v 0.375000 0.200000 -0.375000
v 0.375000 0.150000 -0.375000
v -0.500000 0.200000 -0.375000
v -0.500000 0.150000 -0.375000
v -0.375000 0.150000 0.500000
v -0.375000 0.150000 0.375000
v -0.500000 0.150000 0.375000
v 0.375000 0.150000 0.500000
v -0.375000 0.200000 0.375000
v -0.500000 0.200000 0.375000
v -0.375000 0.200000 0.500000
v 0.375000 0.200000 0.500000
v -0.500000 0.200000 0.500000
v -0.500000 0.200000 -0.500000
v 0.500000 0.200000 0.500000
v 0.500000 0.200000 -0.500000
vn -0.0000 1.0000 -0.0000
vn -0.0000 -0.0000 1.0000
vn -0.0000 -1.0000 -0.0000
vn -0.0000 -0.0000 -1.0000
vn 1.0000 -0.0000 -0.0000
vn -1.0000 -0.0000 -0.0000
vt -19.685040 -11.072830
vt -11.072830 11.072830
vt -19.685040 11.072830
vt 11.072830 -11.072830
vt -11.072830 19.685040
vt 11.072830 19.685040
vt -19.685040 3.937008
vt 19.685040 0.000000
vt 19.685040 3.937008
vt -19.685040 0.000000
vt -19.685040 19.685040
vt 19.685040 -19.685040
vt 19.685040 19.685040
vt -19.685040 -19.685040
vt -19.685040 7.874016
vt 14.763780 5.905512
vt 14.763780 7.874016
vt -19.685040 5.905512
vt -19.685040 14.763780
vt -14.763780 14.763780
vt -14.763780 19.685040
vt -19.685040 -14.763780
vt 14.763780 -14.763780
vt 14.763780 19.685040
vt 19.685040 5.905512
vt 19.685040 7.874016
vt -14.763780 7.874016
vt -14.763780 5.905512
vt 11.072830 5.905512
vt -11.072830 5.905512
s 0
usemtl dirt.002
f 3/1/1 2/2/1 1/3/1
f 2/2/1 3/1/1 4/4/1
f 2/2/1 4/4/1 5/5/1
f 5/5/1 4/4/1 6/6/1
f 9/7/2 8/8/2 7/9/2
f 8/8/2 9/7/2 10/10/2
f 11/11/3 8/12/3 10/13/3
f 8/12/3 11/11/3 12/14/3
f 11/8/4 13/7/4 12/10/4
f 13/7/4 11/8/4 14/9/4
f 13/9/5 8/10/5 12/8/5
f 8/10/5 13/9/5 7/7/5
f 9/9/6 11/10/6 10/8/6
f 11/10/6 9/9/6 14/7/6
usemtl dirtDark.001
f 17/15/2 16/16/2 15/17/2
f 16/16/2 17/15/2 18/18/2
f 2/2/1 19/19/1 1/3/1
f 19/19/1 2/2/1 20/20/1
f 5/5/1 20/20/1 2/2/1
f 20/20/1 5/5/1 21/21/1
f 22/22/1 4/4/1 3/1/1
f 4/4/1 22/22/1 16/23/1
f 4/4/1 16/23/1 6/6/1
f 6/6/1 16/23/1 18/24/1
f 21/25/4 23/17/4 20/16/4
f 23/17/4 21/25/4 24/26/4
f 23/27/5 19/18/5 20/28/5
f 19/18/5 23/27/5 25/15/5
f 26/26/6 16/28/6 22/25/6
f 16/28/6 26/26/6 15/27/6
usemtl foliage.002
f 9/9/6 21/16/6 14/7/6
f 21/16/6 9/9/6 27/26/6
f 21/16/6 27/26/6 24/17/6
f 18/28/6 14/7/6 21/16/6
f 14/7/6 18/28/6 28/15/6
f 18/28/6 21/16/6 5/29/6
f 18/28/6 5/29/6 6/30/6
f 28/15/6 18/28/6 17/27/6
f 27/15/2 19/28/2 25/27/2
f 9/7/2 19/28/2 27/15/2
f 9/7/2 1/30/2 19/28/2
f 9/7/2 3/29/2 1/30/2
f 9/7/2 22/16/2 3/29/2
f 7/9/2 22/16/2 9/7/2
f 7/9/2 26/17/2 22/16/2
f 26/17/2 7/9/2 29/26/2
f 14/9/4 30/15/4 13/7/4
f 30/15/4 14/9/4 28/26/4
f 25/19/1 24/21/1 27/11/1
f 24/21/1 25/19/1 23/20/1
f 29/14/1 15/23/1 26/22/1
f 15/23/1 29/14/1 30/12/1
f 15/23/1 30/12/1 28/13/1
f 28/13/1 17/24/1 15/23/1
f 30/26/5 7/7/5 13/9/5
f 7/7/5 30/26/5 29/15/5
