# Blender 4.1.1
# www.blender.org
mtllib RiverCornerLD.mtl
o RiverCornerLD
v 0.250000 0.150000 0.500000
v -0.250000 0.150000 0.500000
v 0.243584 0.150000 0.402105
v -0.252139 0.150000 0.467369
v -0.258518 0.150000 0.435295
v -0.269030 0.150000 0.404329
v -0.283494 0.150000 0.375000
v 0.224444 0.150000 0.305886
v -0.301662 0.150000 0.347810
v -0.323223 0.150000 0.323223
v -0.347810 0.150000 0.301662
v 0.192910 0.150000 0.212987
v -0.375000 0.150000 0.283494
v -0.404329 0.150000 0.269030
v -0.435295 0.150000 0.258518
v -0.467369 0.150000 0.252139
v -0.500000 0.150000 0.250000
v -0.500000 0.150000 -0.250000
v 0.149519 0.150000 0.125000
v 0.095015 0.150000 0.043429
v 0.030330 0.150000 -0.030330
v -0.043429 0.150000 -0.095015
v -0.125000 0.150000 -0.149519
v -0.212987 0.150000 -0.192910
v -0.305886 0.150000 -0.224444
v -0.402105 0.150000 -0.243584
v -0.500000 0.100000 0.250000
v -0.500000 0.100000 -0.250000
v 0.250000 0.100000 0.500000
v -0.250000 0.100000 0.500000
v 0.500000 0.100000 -0.500000
v 0.500000 0.100000 0.500000
v 0.500000 0.200000 -0.500000
v 0.500000 0.200000 0.500000
v 0.375000 0.200000 0.500000
v 0.375000 0.100000 0.500000
v 0.367514 0.200000 0.385790
v 0.345185 0.200000 0.273533
v 0.308395 0.200000 0.165152
v 0.257772 0.200000 0.062500
v 0.194184 0.200000 -0.032666
v 0.118718 0.200000 -0.118718
v 0.032666 0.200000 -0.194184
v -0.062500 0.200000 -0.257772
v -0.165152 0.200000 -0.308395
v -0.273533 0.200000 -0.345185
v -0.385790 0.200000 -0.367514
v -0.500000 0.200000 -0.375000
v -0.500000 0.200000 -0.500000
v -0.500000 0.100000 -0.500000
v -0.500000 0.100000 0.500000
v -0.500000 0.100000 0.375000
v -0.500000 0.200000 0.500000
v -0.500000 0.200000 0.375000
v -0.500000 0.100000 -0.375000
v -0.375000 0.200000 0.500000
v -0.376069 0.200000 0.483684
v -0.379259 0.200000 0.467648
v -0.384515 0.200000 0.452165
v -0.391747 0.200000 0.437500
v -0.400831 0.200000 0.423905
v -0.411612 0.200000 0.411612
v -0.423905 0.200000 0.400831
v -0.437500 0.200000 0.391747
v -0.452165 0.200000 0.384515
v -0.467648 0.200000 0.379259
v -0.483684 0.200000 0.376069
v -0.375000 0.100000 0.500000
v -0.467369 0.200000 0.252139
v -0.500000 0.200000 0.250000
v 0.500000 -0.000000 -0.500000
v 0.500000 -0.000000 0.500000
v -0.404329 0.200000 0.269030
v -0.435295 0.200000 0.258518
v -0.250000 0.200000 0.500000
v -0.252139 0.200000 0.467369
v -0.258518 0.200000 0.435295
v -0.269030 0.200000 0.404329
v -0.283494 0.200000 0.375000
v -0.301662 0.200000 0.347810
v -0.323223 0.200000 0.323223
v -0.347810 0.200000 0.301662
v -0.375000 0.200000 0.283494
v -0.500000 0.000000 0.500000
v -0.500000 0.000000 -0.500000
v -0.500000 0.200000 -0.250000
v 0.250000 0.200000 0.500000
v 0.243584 0.200000 0.402105
v 0.030330 0.200000 -0.030330
v -0.043429 0.200000 -0.095015
v -0.212987 0.200000 -0.192910
v -0.305886 0.200000 -0.224444
v 0.224444 0.200000 0.305886
v 0.192910 0.200000 0.212987
v 0.149519 0.200000 0.125000
v 0.095015 0.200000 0.043429
v -0.125000 0.200000 -0.149519
v -0.402105 0.200000 -0.243584
vn -0.0000 1.0000 -0.0000
vn -1.0000 -0.0000 -0.0000
vn -0.0000 -0.0000 1.0000
vn 1.0000 -0.0000 -0.0000
vn -0.0000 -0.0000 -1.0000
vn 0.0654 -0.0000 -0.9979
vn 0.1305 -0.0000 -0.9914
vn 0.2588 -0.0000 -0.9659
vn 0.3827 -0.0000 -0.9239
vn -0.0000 -1.0000 -0.0000
vn 0.5000 -0.0000 -0.8660
vn 0.6088 -0.0000 -0.7933
vn 0.7071 -0.0000 -0.7071
vn 0.7934 -0.0000 -0.6088
vn 0.8660 -0.0000 -0.5000
vn 0.9239 -0.0000 -0.3827
vn 0.9659 -0.0000 -0.2588
vn 0.9914 -0.0000 -0.1305
vn 0.6088 -0.0000 -0.7934
vn 0.7933 -0.0000 -0.6088
vn 0.9979 -0.0000 -0.0654
vn -0.9979 -0.0000 0.0654
vn -0.9914 -0.0000 0.1305
vn -0.6088 -0.0000 0.7933
vn -0.7071 -0.0000 0.7071
vn -0.2588 -0.0000 0.9659
vn -0.3827 -0.0000 0.9239
vn -0.9659 -0.0000 0.2588
vn -0.9239 -0.0000 0.3827
vn -0.8660 -0.0000 0.5000
vn -0.7933 -0.0000 0.6088
vn -0.5000 -0.0000 0.8660
vn -0.6087 -0.0000 0.7934
vn -0.6088 -0.0000 0.7934
vn -0.1305 -0.0000 0.9914
vn -0.0654 -0.0000 0.9979
vn -0.7934 -0.0000 0.6087
vn -0.7934 -0.0000 0.6088
vt -15.830920 -9.589908
vt -19.685040 9.842520
vt -19.685040 -9.842520
vt -18.400330 9.926723
vt -17.137609 10.177900
vt -15.918470 10.591740
vt -14.763780 11.161170
vt -12.042740 -8.836392
vt -13.693290 11.876440
vt -12.725330 12.725330
vt -11.876440 13.693290
vt -8.385332 -7.594868
vt -11.161170 14.763780
vt -10.591740 15.918470
vt -10.177900 17.137609
vt -9.926723 18.400330
vt -9.842520 19.685040
vt 9.842520 19.685040
vt -4.921260 -5.886577
vt -1.709800 -3.740748
vt 1.194098 -1.194098
vt 3.740748 1.709800
vt 5.886577 4.921260
vt 7.594868 8.385332
vt 8.836392 12.042740
vt 9.589908 15.830920
vt 9.842520 5.905512
vt -9.842520 3.937008
vt 9.842520 3.937008
vt -9.842520 5.905512
vt 19.685040 7.874016
vt -19.685040 3.937008
vt 19.685040 3.937008
vt -19.685040 7.874016
vt 14.763780 7.874016
vt 14.763780 3.937008
vt 19.685040 -19.685040
vt -19.685040 -14.763780
vt -19.685040 -19.685040
vt -15.188570 -14.469060
vt -10.769030 -13.589960
vt -6.502047 -12.141520
vt -2.460630 -10.148510
vt 1.286073 -7.645046
vt 4.673954 -4.673954
vt 7.645046 -1.286073
vt 10.148510 2.460630
vt 12.141520 6.502047
vt 13.589960 10.769030
vt 14.469060 15.188570
vt 14.763780 19.685040
vt 19.685040 19.685040
vt -14.763780 7.874016
vt -14.763780 3.937008
vt -19.042690 14.805880
vt -19.685040 19.685040
vt -19.685040 14.763780
vt -14.763780 19.685040
vt -18.411320 14.931470
vt -17.801750 15.138390
vt -17.224409 15.423100
vt -16.689171 15.780740
vt -16.205179 16.205179
vt -15.780740 16.689171
vt -15.423100 17.224409
vt -15.138390 17.801750
vt -14.931470 18.411320
vt -14.805880 19.042690
vt 18.999161 5.905512
vt 17.711700 7.874016
vt 17.711700 5.905512
vt 18.999161 7.874016
vt -19.685040 0.000000
vt 19.685040 0.000000
vt 12.956540 5.905512
vt 11.669080 7.874016
vt 11.669080 5.905512
vt 12.956540 7.874016
vt 16.110170 5.905512
vt 14.822700 7.874016
vt 14.822700 5.905512
vt 16.110170 7.874016
vt 9.592237 5.905512
vt 8.304773 7.874016
vt 8.304773 5.905512
vt 9.592237 7.874016
vt 2.464479 5.905512
vt 1.177016 7.874016
vt 1.177016 5.905512
vt 2.464479 7.874016
vt -4.787359 7.874016
vt -6.074822 5.905512
vt -4.787359 5.905512
vt -6.074822 7.874016
vt -8.304773 7.874016
vt -9.592237 5.905512
vt -8.304773 5.905512
vt -9.592237 7.874016
vt -14.822700 7.874016
vt -16.110170 5.905512
vt -14.822700 5.905512
vt -16.110170 7.874016
vt 6.074822 5.905512
vt 4.787359 7.874016
vt 4.787359 5.905512
vt 6.074822 7.874016
vt -1.177016 7.874016
vt -2.464479 5.905512
vt -1.177016 5.905512
vt -2.464479 7.874016
vt -11.669080 7.874016
vt -12.956540 5.905512
vt -11.669080 5.905512
vt -12.956540 7.874016
vt -17.711700 7.874016
vt -18.999161 5.905512
vt -17.711700 5.905512
vt -18.999161 7.874016
vt 9.842520 7.874016
vt -9.842520 7.874016
vt 20.286619 7.874016
vt 16.424231 5.905512
vt 20.286619 5.905512
vt 16.424231 7.874016
vt -19.685040 -0.000000
vt 19.685040 -0.000000
vt -3.751943 7.874016
vt 0.110447 5.905512
vt 0.110447 7.874016
vt -3.751943 5.905512
vt -14.244000 7.874016
vt -10.381610 5.905512
vt -10.381610 7.874016
vt -14.244000 5.905512
vt 14.244000 7.874016
vt 10.381610 5.905512
vt 14.244000 5.905512
vt 10.381610 7.874016
vt 10.879700 7.874016
vt 7.017310 5.905512
vt 10.879700 5.905512
vt 7.017310 7.874016
vt 3.751943 7.874016
vt -0.110447 5.905512
vt 3.751943 5.905512
vt -0.110447 7.874016
vt -7.362285 7.874016
vt -3.499895 5.905512
vt -3.499895 7.874016
vt -7.362285 5.905512
vt -17.397631 7.874016
vt -13.535240 5.905512
vt -13.535240 7.874016
vt -17.397631 5.905512
vt -10.879700 7.874016
vt -7.017310 5.905512
vt -7.017310 7.874016
vt -10.879700 5.905512
vt 17.397631 7.874016
vt 13.535240 5.905512
vt 17.397631 5.905512
vt 13.535240 7.874016
vt -20.286619 7.874016
vt -16.424231 5.905512
vt -16.424231 7.874016
vt -20.286619 5.905512
vt 7.362285 7.874016
vt 3.499895 5.905512
vt 7.362285 5.905512
vt 3.499895 7.874016
s 0
usemtl water
f 3/1/1 2/2/1 1/3/1
f 2/2/1 3/1/1 4/4/1
f 4/4/1 3/1/1 5/5/1
f 5/5/1 3/1/1 6/6/1
f 6/6/1 3/1/1 7/7/1
f 7/7/1 3/1/1 8/8/1
f 7/7/1 8/8/1 9/9/1
f 9/9/1 8/8/1 10/10/1
f 10/10/1 8/8/1 11/11/1
f 11/11/1 8/8/1 12/12/1
f 11/11/1 12/12/1 13/13/1
f 13/13/1 12/12/1 14/14/1
f 14/14/1 12/12/1 15/15/1
f 15/15/1 12/12/1 16/16/1
f 16/16/1 12/12/1 17/17/1
f 17/17/1 12/12/1 18/18/1
f 18/18/1 12/12/1 19/19/1
f 18/18/1 19/19/1 20/20/1
f 18/18/1 20/20/1 21/21/1
f 18/18/1 21/21/1 22/22/1
f 18/18/1 22/22/1 23/23/1
f 18/18/1 23/23/1 24/24/1
f 18/18/1 24/24/1 25/25/1
f 18/18/1 25/25/1 26/26/1
f 17/27/2 28/28/2 27/29/2
f 28/28/2 17/27/2 18/30/2
f 2/30/3 29/29/3 1/27/3
f 29/29/3 2/30/3 30/28/3
usemtl foliage
f 33/31/4 32/32/4 31/33/4
f 32/32/4 33/31/4 34/34/4
f 35/35/3 32/33/3 34/31/3
f 32/33/3 35/35/3 36/36/3
f 33/37/1 35/38/1 34/39/1
f 35/38/1 33/37/1 37/40/1
f 37/40/1 33/37/1 38/41/1
f 38/41/1 33/37/1 39/42/1
f 39/42/1 33/37/1 40/43/1
f 40/43/1 33/37/1 41/44/1
f 41/44/1 33/37/1 42/45/1
f 42/45/1 33/37/1 43/46/1
f 43/46/1 33/37/1 44/47/1
f 44/47/1 33/37/1 45/48/1
f 45/48/1 33/37/1 46/49/1
f 46/49/1 33/37/1 47/50/1
f 47/50/1 33/37/1 48/51/1
f 48/51/1 33/37/1 49/52/1
f 50/33/5 33/34/5 31/32/5
f 33/34/5 50/33/5 49/31/5
f 53/31/2 52/36/2 51/33/2
f 52/36/2 53/31/2 54/35/2
f 48/53/2 50/32/2 55/54/2
f 50/32/2 48/53/2 49/34/2
f 57/55/1 53/56/1 56/57/1
f 53/56/1 57/55/1 54/58/1
f 54/58/1 57/55/1 58/59/1
f 54/58/1 58/59/1 59/60/1
f 54/58/1 59/60/1 60/61/1
f 54/58/1 60/61/1 61/62/1
f 54/58/1 61/62/1 62/63/1
f 54/58/1 62/63/1 63/64/1
f 54/58/1 63/64/1 64/65/1
f 54/58/1 64/65/1 65/66/1
f 54/58/1 65/66/1 66/67/1
f 54/58/1 66/67/1 67/68/1
f 53/34/3 68/54/3 56/53/3
f 68/54/3 53/34/3 51/32/3
usemtl dirt
f 17/69/6 69/70/7 16/71/7
f 69/70/7 17/69/6 70/72/6
f 31/33/4 72/73/4 71/74/4
f 72/73/4 31/33/4 32/32/4
f 15/75/8 73/76/9 14/77/9
f 73/76/9 15/75/8 74/78/8
f 76/4/1 56/57/1 75/2/1
f 56/57/1 76/4/1 57/55/1
f 57/55/1 76/4/1 58/59/1
f 58/59/1 76/4/1 59/60/1
f 59/60/1 76/4/1 77/5/1
f 59/60/1 77/5/1 60/61/1
f 60/61/1 77/5/1 61/62/1
f 61/62/1 77/5/1 78/6/1
f 61/62/1 78/6/1 62/63/1
f 62/63/1 78/6/1 63/64/1
f 63/64/1 78/6/1 79/7/1
f 63/64/1 79/7/1 64/65/1
f 64/65/1 79/7/1 65/66/1
f 65/66/1 79/7/1 66/67/1
f 66/67/1 79/7/1 67/68/1
f 67/68/1 79/7/1 54/58/1
f 54/58/1 79/7/1 80/9/1
f 54/58/1 80/9/1 70/17/1
f 70/17/1 80/9/1 81/10/1
f 70/17/1 81/10/1 82/11/1
f 70/17/1 82/11/1 83/13/1
f 70/17/1 83/13/1 73/14/1
f 70/17/1 73/14/1 74/15/1
f 70/17/1 74/15/1 69/16/1
f 84/52/10 71/39/10 72/37/10
f 71/39/10 84/52/10 85/56/10
f 16/79/7 74/80/8 15/81/8
f 74/80/8 16/79/7 69/82/7
f 14/83/9 83/84/11 13/85/11
f 83/84/11 14/83/9 73/86/9
f 11/87/12 81/88/13 10/89/13
f 81/88/13 11/87/12 82/90/12
f 80/91/14 7/92/15 9/93/14
f 7/92/15 80/91/14 79/94/15
f 79/95/15 6/96/16 7/97/15
f 6/96/16 79/95/15 78/98/16
f 77/99/17 4/100/18 5/101/17
f 4/100/18 77/99/17 76/102/18
f 13/103/11 82/104/19 11/105/19
f 82/104/19 13/103/11 83/106/11
f 81/107/13 9/108/20 10/109/13
f 9/108/20 81/107/13 80/110/20
f 85/74/5 31/32/5 71/73/5
f 31/32/5 85/74/5 50/33/5
f 78/111/16 5/112/17 6/113/16
f 5/112/17 78/111/16 77/114/17
f 76/115/18 2/116/21 4/117/18
f 2/116/21 76/115/18 75/118/21
f 54/35/2 27/29/2 52/36/2
f 27/29/2 54/35/2 17/27/2
f 17/27/2 54/35/2 70/119/2
f 50/32/2 52/36/2 27/29/2
f 50/32/2 51/33/2 52/36/2
f 85/73/2 51/33/2 50/32/2
f 51/33/2 85/73/2 84/74/2
f 50/32/2 27/29/2 28/28/2
f 50/32/2 28/28/2 55/54/2
f 18/30/2 55/54/2 28/28/2
f 55/54/2 18/30/2 48/53/2
f 48/53/2 18/30/2 86/120/2
f 87/121/22 3/122/23 1/123/22
f 3/122/23 87/121/22 88/124/23
f 87/119/3 36/36/3 35/35/3
f 29/29/3 36/36/3 87/119/3
f 84/125/3 36/36/3 29/29/3
f 72/126/3 36/36/3 84/125/3
f 36/36/3 72/126/3 32/33/3
f 29/29/3 87/119/3 1/27/3
f 84/125/3 29/29/3 30/28/3
f 84/125/3 30/28/3 68/54/3
f 68/54/3 30/28/3 56/53/3
f 2/30/3 56/53/3 30/28/3
f 56/53/3 2/30/3 75/120/3
f 84/125/3 68/54/3 51/32/3
f 90/127/24 21/128/25 89/129/25
f 21/128/25 90/127/24 22/130/24
f 92/131/26 24/132/27 91/133/27
f 24/132/27 92/131/26 25/134/26
f 93/135/28 12/136/29 8/137/28
f 12/136/29 93/135/28 94/138/29
f 94/139/29 19/140/30 12/141/29
f 19/140/30 94/139/29 95/142/30
f 96/143/31 21/144/25 20/145/31
f 21/144/25 96/143/31 89/146/25
f 97/147/32 22/148/33 90/149/33
f 22/148/34 97/147/32 23/150/32
f 98/151/35 25/152/26 92/153/26
f 25/152/26 98/151/35 26/154/35
f 91/155/27 23/156/32 97/157/32
f 23/156/32 91/155/27 24/158/27
f 37/40/1 87/3/1 35/38/1
f 87/3/1 37/40/1 88/1/1
f 88/1/1 37/40/1 93/8/1
f 93/8/1 37/40/1 38/41/1
f 93/8/1 38/41/1 94/12/1
f 94/12/1 38/41/1 39/42/1
f 94/12/1 39/42/1 95/19/1
f 95/19/1 39/42/1 40/43/1
f 95/19/1 40/43/1 96/20/1
f 96/20/1 40/43/1 41/44/1
f 96/20/1 41/44/1 89/21/1
f 89/21/1 41/44/1 90/22/1
f 90/22/1 41/44/1 42/45/1
f 90/22/1 42/45/1 97/23/1
f 97/23/1 42/45/1 43/46/1
f 97/23/1 43/46/1 91/24/1
f 91/24/1 43/46/1 92/25/1
f 92/25/1 43/46/1 44/47/1
f 92/25/1 44/47/1 98/26/1
f 98/26/1 44/47/1 86/18/1
f 86/18/1 44/47/1 48/51/1
f 48/51/1 44/47/1 45/48/1
f 48/51/1 45/48/1 46/49/1
f 48/51/1 46/49/1 47/50/1
f 88/159/23 8/160/28 3/161/23
f 8/160/28 88/159/23 93/162/28
f 86/163/36 26/164/35 98/165/35
f 26/164/35 86/163/36 18/166/36
f 95/167/30 20/168/37 19/169/30
f 20/168/38 95/167/30 96/170/38
