# Blender 4.1.1
# www.blender.org
mtllib Sniper.mtl
o Sniper
v -0.500000 -0.000000 -0.500000
v -0.500000 0.200000 -0.500000
v -0.500000 0.000000 0.500000
v -0.500000 0.200000 0.500000
v 0.500000 0.000000 0.500000
v 0.500000 -0.000000 -0.500000
v -0.435000 0.320000 -0.435000
v -0.435000 0.320000 0.435000
v 0.500000 0.200000 -0.500000
v 0.500000 0.200000 0.500000
v 0.435000 0.320000 -0.435000
v 0.435000 0.320000 0.435000
v 0.435000 0.590000 0.435000
v -0.435000 0.590000 0.435000
v 0.435000 0.680000 0.435000
v -0.435000 0.680000 0.435000
v 0.500000 0.800000 -0.500000
v 0.435000 0.680000 -0.435000
v 0.500000 0.800000 0.500000
v -0.500000 0.800000 -0.500000
v -0.500000 0.800000 0.500000
v -0.435000 0.680000 -0.435000
v -0.435000 0.590000 -0.435000
v 0.435000 0.590000 -0.435000
v -0.399556 1.000000 0.250000
v -0.399556 1.000000 0.399556
v -0.500000 1.000000 0.250000
v -0.500000 1.000000 0.500000
v -0.250000 1.000000 0.500000
v -0.250000 1.000000 0.399556
v 0.500000 1.000000 -0.125000
v 0.500000 0.900000 -0.125000
v 0.500000 1.000000 0.125000
v 0.500000 0.900000 0.125000
v 0.500000 0.900000 -0.250000
v 0.500000 1.000000 -0.250000
v 0.500000 1.000000 -0.500000
v 0.500000 0.900000 0.250000
v 0.500000 1.000000 0.500000
v 0.500000 1.000000 0.250000
v 0.250000 0.900000 0.500000
v 0.250000 1.000000 0.500000
v -0.250000 0.900000 0.500000
v 0.125000 0.900000 0.500000
v -0.125000 0.900000 0.500000
v 0.125000 1.000000 0.500000
v -0.125000 1.000000 0.500000
v -0.250000 0.900000 -0.500000
v -0.500000 1.000000 -0.500000
v -0.125000 0.900000 -0.500000
v 0.125000 0.900000 -0.500000
v -0.250000 1.000000 -0.500000
v 0.125000 1.000000 -0.500000
v -0.125000 1.000000 -0.500000
v 0.250000 0.900000 -0.500000
v 0.250000 1.000000 -0.500000
v -0.500000 0.900000 -0.250000
v -0.500000 0.900000 -0.125000
v -0.500000 0.900000 0.125000
v -0.500000 1.000000 -0.125000
v -0.500000 0.900000 0.250000
v -0.500000 1.000000 0.125000
v -0.500000 1.000000 -0.250000
v -0.125000 0.900000 0.399556
v -0.250000 0.900000 0.399556
v 0.399556 1.000000 -0.399556
v 0.399556 0.900000 -0.250000
v 0.399556 0.830000 -0.399556
v 0.399556 0.830000 0.399556
v 0.399556 0.900000 -0.125000
v 0.399556 0.900000 0.125000
v 0.399556 1.000000 -0.125000
v 0.399556 0.900000 0.250000
v 0.399556 1.000000 0.250000
v 0.399556 1.000000 0.399556
v 0.399556 1.000000 0.125000
v 0.399556 1.000000 -0.250000
v 0.250000 0.900000 0.399556
v 0.125000 0.900000 0.399556
v -0.399556 0.900000 -0.125000
v -0.399556 1.000000 -0.125000
v -0.399556 0.900000 -0.250000
v -0.125000 1.000000 0.399556
v 0.250000 0.900000 -0.399556
v 0.125000 0.900000 -0.399556
v 0.250000 1.000000 0.399556
v -0.399556 0.830000 -0.399556
v 0.250000 1.000000 -0.399556
v -0.125000 0.900000 -0.399556
v 0.125000 1.000000 -0.399556
v -0.125000 1.000000 -0.399556
v -0.250000 0.900000 -0.399556
v -0.399556 1.000000 -0.399556
v -0.250000 1.000000 -0.399556
v -0.399556 1.000000 -0.250000
v 0.125000 1.000000 0.399556
v -0.399556 1.000000 0.125000
v -0.399556 0.900000 0.250000
v -0.399556 0.900000 0.125000
v -0.399556 0.830000 0.399556
v 0.299212 0.830000 -0.299212
v 0.299212 0.830000 0.299212
v -0.299212 0.830000 -0.299212
v -0.299212 0.830000 0.299212
vn -1.0000 -0.0000 -0.0000
vn -0.0000 -1.0000 -0.0000
vn -0.8793 0.4763 -0.0000
vn 1.0000 -0.0000 -0.0000
vn -0.0000 -0.0000 1.0000
vn 0.8793 0.4763 -0.0000
vn -0.0000 0.4763 0.8793
vn -0.0000 0.4763 -0.8793
vn -0.0000 -0.0000 -1.0000
vn 0.8793 -0.4763 -0.0000
vn -0.8793 -0.4763 -0.0000
vn -0.0000 -0.4763 -0.8793
vn -0.0000 -0.4763 0.8793
vn -0.0000 1.0000 -0.0000
vt 19.685040 0.000000
vt -19.685040 7.874016
vt -19.685040 0.000000
vt 19.685040 7.874016
vt -19.685040 19.685040
vt 19.685040 -19.685040
vt 19.685040 19.685040
vt -19.685040 -19.685040
vt 19.685040 -2.452094
vt -17.125980 2.920876
vt -19.685040 -2.452094
vt 17.125980 2.920876
vt 17.125980 26.771650
vt -17.125980 23.228350
vt 17.125980 23.228350
vt -17.125980 26.771650
vt -19.685040 37.069889
vt 17.125980 31.696920
vt 19.685040 37.069889
vt -17.125980 31.696920
vt 19.685040 9.842520
vt 15.730540 15.730540
vt 15.730540 9.842520
vt 9.842520 19.685040
vt 9.842520 15.730540
vt -4.921260 39.370079
vt 4.921260 35.433071
vt 4.921260 39.370079
vt -4.921260 35.433071
vt -19.685040 31.496059
vt 9.842520 35.433071
vt 19.685040 31.496059
vt 9.842520 39.370079
vt 19.685040 39.370079
vt -9.842520 35.433071
vt -19.685040 39.370079
vt -9.842520 39.370079
vt 4.921260 19.685040
vt 4.921260 15.730540
vt -15.730540 32.677170
vt -15.730540 39.370079
vt 15.730540 32.677170
vt 15.730540 39.370079
vt -4.921260 15.730540
vt -9.842520 19.685040
vt -9.842520 15.730540
vt -4.921260 19.685040
vt 15.730540 35.433071
vt 19.685040 35.433071
vt 19.685040 -9.842520
vt 15.730540 -4.921260
vt 15.730540 -9.842520
vt 19.685040 -4.921260
vt -4.921260 -19.685040
vt -9.842520 -15.730540
vt -9.842520 -19.685040
vt -4.921260 -15.730540
vt -15.730540 9.842520
vt -19.685040 9.842520
vt -15.730540 15.730540
vt 9.842520 -19.685040
vt 4.921260 -15.730540
vt 4.921260 -19.685040
vt 9.842520 -15.730540
vt -15.730540 4.921260
vt -19.685040 4.921260
vt 15.730540 -15.730540
vt -17.125980 12.598420
vt 17.125980 12.598420
vt -15.730540 35.433071
vt -19.685040 35.433071
vt 15.730540 4.921260
vt 19.685040 4.921260
vt 11.780000 -11.780000
vt -11.780000 11.780000
vt -11.780000 -11.780000
vt 11.780000 11.780000
vt -15.730540 -15.730540
vt -19.685040 -9.842520
vt -15.730540 -9.842520
vt -15.730540 -4.921260
vt -19.685040 -4.921260
s 0
usemtl purple
f 3/1/1 2/2/1 1/3/1
f 2/2/1 3/1/1 4/4/1
f 3/5/2 6/6/2 5/7/2
f 6/6/2 3/5/2 1/8/2
f 4/9/3 7/10/3 2/11/3
f 7/10/3 4/9/3 8/12/3
f 10/2/4 6/1/4 9/4/4
f 6/1/4 10/2/4 5/3/4
f 10/4/5 3/3/5 5/1/5
f 3/3/5 10/4/5 4/2/5
f 11/12/6 10/11/6 9/9/6
f 10/11/6 11/12/6 12/10/6
f 12/12/7 4/11/7 10/9/7
f 4/11/7 12/12/7 8/10/7
f 7/12/8 9/11/8 2/9/8
f 9/11/8 7/12/8 11/10/8
f 2/4/9 6/3/9 1/1/9
f 6/3/9 2/4/9 9/2/9
f 15/13/5 14/14/5 13/15/5
f 14/14/5 15/13/5 16/16/5
f 19/17/10 18/18/10 17/19/10
f 18/18/10 19/17/10 15/20/10
f 22/20/11 21/19/11 20/17/11
f 21/19/11 22/20/11 16/18/11
f 14/15/1 22/16/1 23/14/1
f 22/16/1 14/15/1 16/13/1
f 22/13/9 24/14/9 23/15/9
f 24/14/9 22/13/9 18/16/9
f 20/19/12 18/20/12 22/18/12
f 18/20/12 20/19/12 17/17/12
f 19/19/13 16/20/13 15/18/13
f 16/20/13 19/19/13 21/17/13
f 15/16/4 24/15/4 18/13/4
f 24/15/4 15/16/4 13/14/4
usemtl stone.009
f 27/21/14 26/22/14 25/23/14
f 28/7/14 26/22/14 27/21/14
f 29/24/14 26/22/14 28/7/14
f 26/22/14 29/24/14 30/25/14
f 33/26/4 32/27/4 31/28/4
f 34/29/4 32/27/4 33/26/4
f 19/30/4 32/27/4 34/29/4
f 19/30/4 35/31/4 32/27/4
f 17/32/4 35/31/4 19/30/4
f 17/32/4 36/33/4 35/31/4
f 36/33/4 17/32/4 37/34/4
f 19/30/4 34/29/4 38/35/4
f 19/30/4 38/35/4 39/36/4
f 39/36/4 38/35/4 40/37/4
f 19/32/5 41/31/5 21/30/5
f 41/31/5 19/32/5 39/34/5
f 41/31/5 39/34/5 42/33/5
f 43/35/5 21/30/5 41/31/5
f 21/30/5 43/35/5 28/36/5
f 43/35/5 41/31/5 44/27/5
f 43/35/5 44/27/5 45/29/5
f 46/28/5 45/29/5 44/27/5
f 45/29/5 46/28/5 47/26/5
f 28/36/5 43/35/5 29/37/5
f 20/32/9 48/31/9 17/30/9
f 48/31/9 20/32/9 49/34/9
f 17/30/9 48/31/9 50/27/9
f 17/30/9 50/27/9 51/29/9
f 48/31/9 49/34/9 52/33/9
f 50/27/9 53/26/9 51/29/9
f 53/26/9 50/27/9 54/28/9
f 55/35/9 17/30/9 51/29/9
f 17/30/9 55/35/9 37/36/9
f 37/36/9 55/35/9 56/37/9
f 20/30/1 57/35/1 49/36/1
f 57/35/1 20/30/1 21/32/1
f 57/35/1 21/32/1 58/29/1
f 58/29/1 21/32/1 59/27/1
f 58/29/1 59/27/1 60/26/1
f 59/27/1 21/32/1 61/31/1
f 61/31/1 21/32/1 27/33/1
f 27/33/1 21/32/1 28/34/1
f 62/28/1 60/26/1 59/27/1
f 63/37/1 49/36/1 57/35/1
f 65/25/14 45/38/14 64/39/14
f 45/38/14 65/25/14 43/24/14
f 68/40/1 67/35/1 66/41/1
f 67/35/1 68/40/1 69/42/1
f 67/35/1 69/42/1 70/29/1
f 70/29/1 69/42/1 71/27/1
f 70/29/1 71/27/1 72/26/1
f 71/27/1 69/42/1 73/31/1
f 73/31/1 69/42/1 74/33/1
f 74/33/1 69/42/1 75/43/1
f 76/28/1 72/26/1 71/27/1
f 77/37/1 66/41/1 67/35/1
f 79/44/14 41/45/14 78/46/14
f 41/45/14 79/44/14 44/47/14
f 60/34/9 80/48/9 58/49/9
f 80/48/9 60/34/9 81/43/9
f 57/50/14 80/51/14 82/52/14
f 80/51/14 57/50/14 58/53/14
f 45/49/1 83/43/1 64/48/1
f 83/43/1 45/49/1 47/34/1
f 51/54/14 84/55/14 55/56/14
f 84/55/14 51/54/14 85/57/14
f 74/58/14 39/5/14 40/59/14
f 39/5/14 74/58/14 75/60/14
f 39/5/14 75/60/14 42/45/14
f 42/45/14 75/60/14 86/46/14
f 68/42/5 84/31/5 87/40/5
f 84/31/5 68/42/5 66/43/5
f 84/31/5 66/43/5 88/33/5
f 85/27/5 87/40/5 84/31/5
f 89/29/5 87/40/5 85/27/5
f 90/28/5 89/29/5 85/27/5
f 89/29/5 90/28/5 91/26/5
f 92/35/5 87/40/5 89/29/5
f 87/40/5 92/35/5 93/41/5
f 93/41/5 92/35/5 94/37/5
f 48/61/14 89/62/14 50/63/14
f 89/62/14 48/61/14 92/64/14
f 71/65/14 38/59/14 34/66/14
f 38/59/14 71/65/14 73/58/14
f 49/6/14 94/64/14 52/61/14
f 94/64/14 49/6/14 93/67/14
f 93/67/14 49/6/14 95/52/14
f 95/52/14 49/6/14 63/50/14
f 23/15/9 11/68/9 7/69/9
f 11/68/9 23/15/9 24/14/9
f 41/49/1 86/43/1 78/48/1
f 86/43/1 41/49/1 42/34/1
f 89/70/1 54/36/1 50/71/1
f 54/36/1 89/70/1 91/41/1
f 94/43/4 48/49/4 52/34/4
f 48/49/4 94/43/4 92/48/4
f 83/39/14 46/47/14 96/44/14
f 46/47/14 83/39/14 47/38/14
f 13/15/5 8/68/5 12/69/5
f 8/68/5 13/15/5 14/14/5
f 95/41/5 57/71/5 82/70/5
f 57/71/5 95/41/5 63/36/5
f 29/36/4 65/70/4 30/41/4
f 65/70/4 29/36/4 43/71/4
f 60/53/14 97/72/14 81/51/14
f 97/72/14 60/53/14 62/73/14
f 54/63/14 90/57/14 53/54/14
f 90/57/14 54/63/14 91/62/14
f 13/14/4 11/69/4 24/15/4
f 11/69/4 13/14/4 12/68/4
f 27/34/9 98/48/9 61/49/9
f 98/48/9 27/34/9 25/43/9
f 59/73/14 98/23/14 99/72/14
f 98/23/14 59/73/14 61/21/14
f 36/34/5 67/48/5 35/49/5
f 67/48/5 36/34/5 77/43/5
f 74/41/9 38/71/9 73/70/9
f 38/71/9 74/41/9 40/36/9
f 97/26/4 80/27/4 81/28/4
f 99/29/4 80/27/4 97/26/4
f 100/40/4 80/27/4 99/29/4
f 100/40/4 82/31/4 80/27/4
f 87/42/4 82/31/4 100/40/4
f 87/42/4 95/33/4 82/31/4
f 95/33/4 87/42/4 93/43/4
f 100/40/4 99/29/4 98/35/4
f 100/40/4 98/35/4 26/41/4
f 26/41/4 98/35/4 25/37/4
f 84/70/1 56/36/1 55/71/1
f 56/36/1 84/70/1 88/41/1
f 72/41/9 32/71/9 70/70/9
f 32/71/9 72/41/9 31/36/9
f 97/41/5 59/71/5 99/70/5
f 59/71/5 97/41/5 62/36/5
f 33/34/5 71/48/5 34/49/5
f 71/48/5 33/34/5 76/43/5
f 103/74/14 102/75/14 101/76/14
f 102/75/14 103/74/14 104/77/14
f 100/42/9 65/31/9 69/40/9
f 65/31/9 100/42/9 26/43/9
f 65/31/9 26/43/9 30/33/9
f 78/35/9 69/40/9 65/31/9
f 69/40/9 78/35/9 75/41/9
f 78/35/9 65/31/9 64/27/9
f 78/35/9 64/27/9 79/29/9
f 83/28/9 79/29/9 64/27/9
f 79/29/9 83/28/9 96/26/9
f 75/41/9 78/35/9 86/37/9
f 90/43/4 51/49/4 53/34/4
f 51/49/4 90/43/4 85/48/4
f 37/8/14 66/78/14 36/79/14
f 66/78/14 37/8/14 56/56/14
f 66/78/14 56/56/14 88/55/14
f 77/80/14 36/79/14 66/78/14
f 8/69/1 23/14/1 7/68/1
f 23/14/1 8/69/1 14/15/1
f 72/81/14 33/66/14 31/82/14
f 33/66/14 72/81/14 76/65/14
f 46/36/4 79/70/4 96/41/4
f 79/70/4 46/36/4 44/71/4
f 67/80/14 32/82/14 35/79/14
f 32/82/14 67/80/14 70/81/14
usemtl stoneDark.006
f 68/78/14 101/76/14 69/60/14
f 101/76/14 68/78/14 87/67/14
f 101/76/14 87/67/14 103/74/14
f 103/74/14 87/67/14 104/77/14
f 102/75/14 69/60/14 101/76/14
f 69/60/14 102/75/14 100/22/14
f 100/22/14 102/75/14 104/77/14
f 100/22/14 104/77/14 87/67/14
